HIERARCHY
ROOT hip
{
  OFFSET 313.241 85.5226 -38.7667
  CHANNELS 6 Xposition Yposition Zposition Zrotation Xrotation Yrotation
  JOINT abdomen
  {
    OFFSET 0 20.6881 -0.73152
    CHANNELS 3 Zrotation Xrotation Yrotation
    JOINT chest
    {
      OFFSET 0 11.7043 -0.48768
      CHANNELS 3 Zrotation Xrotation Yrotation
      JOINT neck
      {
        OFFSET 0 22.1894 -2.19456
        CHANNELS 3 Zrotation Xrotation Yrotation
        JOINT head
        {
          OFFSET -0.24384 7.07133 1.2192
          CHANNELS 3 Zrotation Xrotation Yrotation
          JOINT leftEye
          {
            OFFSET 4.14528 8.04674 8.04672
            CHANNELS 3 Zrotation Xrotation Yrotation
            End Site
            {
              OFFSET 1 0 0
            }
          }
          JOINT rightEye
          {
            OFFSET -3.6576 8.04674 8.04672
            CHANNELS 3 Zrotation Xrotation Yrotation
            End Site
            {
              OFFSET 1 0 0
            }
          }
        }
      }
      JOINT rCollar
      {
        OFFSET -2.68224 19.2634 -4.8768
        CHANNELS 3 Zrotation Xrotation Yrotation
        JOINT rShldr
        {
          OFFSET -8.77824 -1.95073 1.46304
          CHANNELS 3 Zrotation Xrotation Yrotation
          JOINT rForeArm
          {
            OFFSET -28.1742 -1.7115 0.48768
            CHANNELS 3 Zrotation Xrotation Yrotation
            JOINT rHand
            {
              OFFSET -22.5879 0.773209 7.07136
              CHANNELS 3 Zrotation Xrotation Yrotation
              JOINT rThumb1
              {
                OFFSET -1.2192 -0.487915 3.41376
                CHANNELS 3 Zrotation Xrotation Yrotation
                JOINT rThumb2
                {
                  OFFSET -3.37035 -0.52449 3.41376
                  CHANNELS 3 Zrotation Xrotation Yrotation
                  End Site
                  {
                    OFFSET -1.78271 -1.18214 1.43049
                  }
                }
              }
              JOINT rIndex1
              {
                OFFSET -7.75947 0.938293 5.60832
                CHANNELS 3 Zrotation Xrotation Yrotation
                JOINT rIndex2
                {
                  OFFSET -2.54057 -0.884171 1.56538
                  CHANNELS 3 Zrotation Xrotation Yrotation
                  End Site
                  {
                    OFFSET -1.62519 -0.234802 1.16502
                  }
                }
              }
              JOINT rMid1
              {
                OFFSET -8.24714 1.18213 3.41376
                CHANNELS 3 Zrotation Xrotation Yrotation
                JOINT rMid2
                {
                  OFFSET -3.10165 -0.590103 1.0647
                  CHANNELS 3 Zrotation Xrotation Yrotation
                  End Site
                  {
                    OFFSET -2.48547 -0.328903 0.83742
                  }
                }
              }
              JOINT rRing1
              {
                OFFSET -8.82822 0.546677 1.51678
                CHANNELS 3 Zrotation Xrotation Yrotation
                JOINT rRing2
                {
                  OFFSET -2.60934 -0.819778 -0.0198488
                  CHANNELS 3 Zrotation Xrotation Yrotation
                  End Site
                  {
                    OFFSET -2.33842 -0.294052 0.168128
                  }
                }
              }
              JOINT rPinky1
              {
                OFFSET -8.27202 -0.0477905 -0.4584
                CHANNELS 3 Zrotation Xrotation Yrotation
                JOINT rPinky2
                {
                  OFFSET -1.82734 -0.647385 -0.700984
                  CHANNELS 3 Zrotation Xrotation Yrotation
                  End Site
                  {
                    OFFSET -1.69225 -0.51767 -0.607171
                  }
                }
              }
            }
          }
        }
      }
      JOINT lCollar
      {
        OFFSET 2.68224 19.2634 -4.8768
        CHANNELS 3 Zrotation Xrotation Yrotation
        JOINT lShldr
        {
          OFFSET 8.77824 -1.95073 1.46304
          CHANNELS 3 Zrotation Xrotation Yrotation
          JOINT lForeArm
          {
            OFFSET 28.1742 -1.7115 0.48768
            CHANNELS 3 Zrotation Xrotation Yrotation
            JOINT lHand
            {
              OFFSET 22.5879 0.773209 7.07136
              CHANNELS 3 Zrotation Xrotation Yrotation
              JOINT lThumb1
              {
                OFFSET 1.2192 -0.487915 3.41376
                CHANNELS 3 Zrotation Xrotation Yrotation
                JOINT lThumb2
                {
                  OFFSET 3.37035 -0.52449 3.41376
                  CHANNELS 3 Zrotation Xrotation Yrotation
                  End Site
                  {
                    OFFSET 1.78271 -1.18214 1.43049
                  }
                }
              }
              JOINT lIndex1
              {
                OFFSET 7.75947 0.938293 5.60832
                CHANNELS 3 Zrotation Xrotation Yrotation
                JOINT lIndex2
                {
                  OFFSET 2.54057 -0.884171 1.56538
                  CHANNELS 3 Zrotation Xrotation Yrotation
                  End Site
                  {
                    OFFSET 1.62519 -0.234802 1.16502
                  }
                }
              }
              JOINT lMid1
              {
                OFFSET 8.24714 1.18213 3.41376
                CHANNELS 3 Zrotation Xrotation Yrotation
                JOINT lMid2
                {
                  OFFSET 3.10165 -0.590103 1.0647
                  CHANNELS 3 Zrotation Xrotation Yrotation
                  End Site
                  {
                    OFFSET 2.48547 -0.328903 0.83742
                  }
                }
              }
              JOINT lRing1
              {
                OFFSET 8.82822 0.546677 1.51678
                CHANNELS 3 Zrotation Xrotation Yrotation
                JOINT lRing2
                {
                  OFFSET 2.60934 -0.819778 -0.0198488
                  CHANNELS 3 Zrotation Xrotation Yrotation
                  End Site
                  {
                    OFFSET 2.33842 -0.294052 0.168128
                  }
                }
              }
              JOINT lPinky1
              {
                OFFSET 8.27202 -0.0477905 -0.4584
                CHANNELS 3 Zrotation Xrotation Yrotation
                JOINT lPinky2
                {
                  OFFSET 1.82734 -0.647385 -0.700984
                  CHANNELS 3 Zrotation Xrotation Yrotation
                  End Site
                  {
                    OFFSET 1.69225 -0.51767 -0.607171
                  }
                }
              }
            }
          }
        }
      }
    }
  }
  JOINT rButtock
  {
    OFFSET -8.77824 4.35084 1.2192
    CHANNELS 3 Zrotation Xrotation Yrotation
    JOINT rThigh
    {
      OFFSET 0 -1.70687 -2.19456
      CHANNELS 3 Zrotation Xrotation Yrotation
      JOINT rShin
      {
        OFFSET 0 -36.8199 0.73152
        CHANNELS 3 Zrotation Xrotation Yrotation
        JOINT rFoot
        {
          OFFSET 0.73152 -45.1104 -5.12064
          CHANNELS 3 Zrotation Xrotation Yrotation
          End Site
          {
            OFFSET -1.1221 -3.69964 12.103
          }
        }
      }
    }
  }
  JOINT lButtock
  {
    OFFSET 8.77824 4.35084 1.2192
    CHANNELS 3 Zrotation Xrotation Yrotation
    JOINT lThigh
    {
      OFFSET 0 -1.70687 -2.19456
      CHANNELS 3 Zrotation Xrotation Yrotation
      JOINT lShin
      {
        OFFSET 0 -36.8199 0.73152
        CHANNELS 3 Zrotation Xrotation Yrotation
        JOINT lFoot
        {
          OFFSET -0.73152 -45.1104 -5.12064
          CHANNELS 3 Zrotation Xrotation Yrotation
          End Site
          {
            OFFSET 1.1221 -3.69964 12.103
          }
        }
      }
    }
  }
}
MOTION
Frames:	5
Frame Time:	0.00833333
-116.264 85.0916 -8.4345 -1.46719 0.00515149 0.0277561 1.92992 -0.00172155 0.0523836 0.532092 0.00507178 0.0921243 3.72092e-014 0 2.48481e-016 1.11941e-013 3.18055e-015 7.93586e-016 -0 0 0 -0 0 0 1.89332e-014 -6.40615e-017 2.98177e-016 3.941e-013 -1.17407e-015 4.96962e-015 6.74591e-012 -2.06219e-012 -3.18055e-015 7.71385e-011 1.77458e-012 6.64736e-013 1.81962e-010 -6.26866e-013 1.42807e-012 3.14224e-010 -1.07821e-012 2.46573e-012 1.81968e-010 -6.27762e-013 1.42489e-012 7.73091 5.47488 0.417314 1.81961e-010 -6.2647e-013 1.42807e-012 2.90554 0.965183 0.102902 1.81965e-010 -6.26569e-013 1.43284e-012 10.2786 0.731801 0.0259123 1.81959e-010 -6.26172e-013 1.44397e-012 2.22167 -0.733487 -0.20892 1.87377e-014 -6.05672e-017 -9.93923e-017 3.90538e-013 -1.1865e-015 3.37934e-015 6.73572e-012 1.97433e-012 -1.59028e-014 7.71228e-011 -2.26383e-012 6.9018e-013 1.81913e-010 -6.30876e-013 1.43125e-012 3.14155e-010 -1.09411e-012 2.46493e-012 1.81911e-010 -6.30545e-013 1.44397e-012 -7.73091 5.47488 -0.417314 1.81915e-010 -6.31638e-013 1.43125e-012 -2.90554 0.965183 -0.102902 1.81915e-010 -6.3134e-013 1.43045e-012 -10.2786 0.731801 -0.0259123 1.81914e-010 -6.29352e-013 1.42489e-012 -2.22167 -0.733487 0.20892 -2.03217e-016 0 -3.88251e-019 1.95886 -7.26124 -0.191979 0.00412479 7.58542 0.107101 -0.520636 -0.330727 0.0522548 2.03217e-016 0 3.88251e-019 0.976071 -1.92613 0.000879979 0.00899161 -2.0786 0.0741022 0.488517 3.99808 -0.136832 
-116.175 79.1977 -15.9059 10.8173 20.927 22.7493 -4.22761 6.97851 1.37951 -0.601535 -0.989904 0.00311544 -0.031519 -3.96365 -0.164676 1.50148 -1.22791 -0.232357 -0 0 0 -0 0 0 2.44222e-014 1.56013e-013 1.46052e-014 20.9894 16.8686 -3.07346 -16.3968 -13.7829 14.8627 0.0333044 -4.05218 -0.564373 7.94333e-011 -4.76738e-011 -3.46824e-010 1.41557e-010 -8.36894e-011 -6.0017e-010 7.94374e-011 -4.76731e-011 -3.46829e-010 7.73091 5.47488 0.417314 7.9428e-011 -4.76706e-011 -3.46821e-010 2.90554 0.965183 0.102902 7.94373e-011 -4.76715e-011 -3.4682e-010 10.2786 0.731801 0.0259123 7.94296e-011 -4.76711e-011 -3.46811e-010 2.22167 -0.733487 -0.20892 2.42186e-014 1.56026e-013 1.42904e-014 -18.2239 13.6751 1.1832 13.8998 -11.0092 -14.2057 -0.0229459 -3.37417 0.47128 1.0367e-010 1.94354e-012 1.7771e-010 1.76837e-010 3.28089e-012 3.06522e-010 1.03667e-010 1.94467e-012 1.77725e-010 -7.73091 5.47488 -0.417314 1.03671e-010 1.94436e-012 1.77713e-010 -2.90554 0.965183 -0.102902 1.03669e-010 1.94431e-012 1.77711e-010 -10.2786 0.731801 -0.0259123 1.03673e-010 1.94538e-012 1.77706e-010 -2.22167 -0.733487 0.20892 -2.03217e-016 0 -3.88251e-019 -2.60621 -8.21341 -1.3276 42.3916 34.5133 4.36424 -48.2943 -2.87377 -9.73651 2.03217e-016 0 3.88251e-019 -4.25925 -12.8326 0.811697 0.493731 13.985 0.189855 0.424896 -2.66173 0.859453 
-112.376 78.1368 -17.1588 5.47507 31.3527 53.8745 -11.0279 14.3486 2.95439 -1.84044 -2.00867 -0.0672535 -0.0696174 -8.13512 -0.341354 3.05823 -2.50948 -0.491806 -0 0 0 -0 0 0 3.22026e-014 3.46574e-013 3.25945e-014 45.4753 34.5862 -7.13107 -25.7007 -25.2452 33.2046 -0.0190822 -8.31899 -1.16828 -1.74053e-011 -9.78034e-011 -7.32478e-010 -2.08292e-011 -1.71759e-010 -1.26742e-009 -1.74035e-011 -9.78009e-011 -7.32486e-010 7.73091 5.47488 0.417314 -1.74151e-011 -9.77971e-011 -7.32471e-010 2.90554 0.965183 0.102902 -1.74008e-011 -9.77989e-011 -7.32476e-010 10.2786 0.731801 0.0259123 -1.741e-011 -9.77985e-011 -7.32468e-010 2.22167 -0.733487 -0.20892 3.19882e-014 3.46597e-013 3.23677e-014 -38.2975 28.1374 3.00618 22.5702 -20.3171 -30.7669 0.0138086 -6.97465 0.979785 1.78285e-011 7.51317e-012 3.22547e-010 2.65883e-011 1.29675e-011 5.56084e-010 1.78242e-011 7.5152e-012 3.22566e-010 -7.73091 5.47488 -0.417314 1.78288e-011 7.5157e-012 3.22553e-010 -2.90554 0.965183 -0.102902 1.78252e-011 7.51532e-012 3.2255e-010 -10.2786 0.731801 -0.0259123 1.78336e-011 7.51538e-012 3.22546e-010 -2.22167 -0.733487 0.20892 -2.03217e-016 0 -3.88251e-019 -7.39472 -8.92782 -2.38841 79.6364 62.9103 16.5314 -99.5263 -5.48485 -18.108 2.03217e-016 0 3.88251e-019 -9.33056 -24.582 1.82984 0.957864 31.0129 0.382302 0.592333 -9.56258 1.96682 
-108.427 77.2427 -18.3907 -4.27592 24.3876 79.2062 -17.5704 20.8915 4.28529 -2.87807 -2.97984 -0.175141 -0.164185 -11.8906 -0.503653 4.47451 -3.68349 -0.698354 -0 0 0 -0 0 0 3.54004e-014 4.68168e-013 4.32194e-014 70.8951 49.8541 -13.7631 -27.7069 -29.6006 52.0371 -0.144208 -12.1518 -1.72761 -1.25623e-010 -1.41768e-010 -1.04333e-009 -2.03777e-010 -2.48912e-010 -1.80544e-009 -1.25624e-010 -1.41764e-010 -1.04334e-009 7.73091 5.47488 0.417314 -1.25637e-010 -1.41759e-010 -1.04332e-009 2.90554 0.965183 0.102902 -1.25619e-010 -1.41761e-010 -1.04333e-009 10.2786 0.731801 0.0259123 -1.25629e-010 -1.41761e-010 -1.04332e-009 2.22167 -0.733487 -0.20892 3.51804e-014 4.682e-013 4.30699e-014 -56.8295 40.9435 4.5681 25.7529 -24.6591 -47.1937 0.0999071 -10.1198 1.4337 -5.28167e-011 7.09238e-012 5.30267e-010 -9.77991e-011 1.20309e-011 9.14636e-010 -5.28216e-011 7.09509e-012 5.30288e-010 -7.73091 5.47488 -0.417314 -5.28169e-011 7.09636e-012 5.30276e-010 -2.90554 0.965183 -0.102902 -5.28223e-011 7.0956e-012 5.30272e-010 -10.2786 0.731801 -0.0259123 -5.28098e-011 7.09484e-012 5.30269e-010 -2.22167 -0.733487 0.20892 -2.03217e-016 0 -3.88251e-019 -11.8512 -10.1044 -3.61725 52.1422 79.3364 82.5534 -146.337 -7.0472 -29.5218 2.03217e-016 0 3.88251e-019 -13.6319 -34.6152 2.8832 1.18564 46.111 0.583587 1.01246 -15.962 2.96291 
-104.418 76.528 -19.4561 -7.68725 13.0951 88.7519 -22.5895 25.4269 4.7225 -3.41103 -3.83198 -0.376849 -0.350925 -14.6063 -0.621073 5.56309 -4.58892 -0.771329 -0 0 0 -0 0 0 2.71418e-014 4.17348e-013 3.54334e-014 93.8038 59.3209 -23.7577 -27.5319 -28.313 64.5622 -0.280417 -14.9038 -2.14365 -2.62291e-010 -1.70319e-010 -1.16717e-009 -4.38129e-010 -2.98772e-010 -2.02037e-009 -2.62292e-010 -1.70314e-010 -1.16718e-009 7.73091 5.47488 0.417314 -2.62306e-010 -1.70309e-010 -1.16716e-009 2.90554 0.965183 0.102902 -2.62286e-010 -1.70312e-010 -1.16717e-009 10.2786 0.731801 0.0259123 -2.62297e-010 -1.70312e-010 -1.16716e-009 2.22167 -0.733487 -0.20892 2.69292e-014 4.17385e-013 3.5334e-014 -68.7794 49.761 3.85741 26.4803 -24.7354 -58.8587 0.183907 -12.1293 1.73085 -8.5471e-011 -8.30443e-012 8.95196e-010 -1.57532e-010 -1.54639e-011 1.54567e-009 -8.54762e-011 -8.30164e-012 8.95218e-010 -7.73091 5.47488 -0.417314 -8.54713e-011 -8.29966e-012 8.95205e-010 -2.90554 0.965183 -0.102902 -8.54781e-011 -8.30095e-012 8.95201e-010 -10.2786 0.731801 -0.0259123 -8.54633e-011 -8.30204e-012 8.95199e-010 -2.22167 -0.733487 0.20892 -2.03217e-016 0 -3.88251e-019 -15.5086 -12.4339 -5.27714 15.4155 73.2259 134.426 179.531 -6.05867 -48.2811 2.03217e-016 0 3.88251e-019 -16.9899 -40.3942 3.5082 1.17377 56.3871 0.569476 1.54376 -21.1292 3.5682 
